<svg version="1.2" xmlns="http://www.w3.org/2000/svg" viewBox="0 0 382 85" width="382" height="85">
	<title>bgbgbg</title>
	<style>
		.s0 { fill: #5d7d46 } 
	</style>
	<g>
		<path fill-rule="evenodd" class="s0" d="m354.3 75c-20.4 0-36.8-16.4-36.8-36.8 0-20.3 16.4-36.7 36.7-36.7 20.4 0 36.8 16.4 36.8 36.8 0 20.3-16.4 36.7-36.8 36.7z"/>
		<path fill-rule="evenodd" class="s0" d="m245.8 75c-20.4 0-36.8-16.4-36.8-36.8 0-20.3 16.4-36.7 36.7-36.7 20.4 0 36.8 16.4 36.8 36.8 0 20.3-16.4 36.7-36.8 36.7z"/>
		<path fill-rule="evenodd" class="s0" d="m137.3 75c-20.4 0-36.8-16.4-36.8-36.8 0-20.3 16.4-36.7 36.7-36.7 20.4 0 36.8 16.4 36.8 36.8 0 20.3-16.4 36.7-36.8 36.7z"/>
		<path fill-rule="evenodd" class="s0" d="m27.9 75c-20.8 0-37.6-16.8-37.6-37.6 0-20.8 16.8-37.6 37.6-37.6 20.8 0 37.6 16.8 37.6 37.6 0 20.8-16.8 37.6-37.6 37.6z"/>
		<path fill-rule="evenodd" class="s0" d="m-27.3 75c-19.3 0-35-15.6-35-35 0.1-19.4 15.7-35 35-35 19.4 0 35 15.6 35 35 0.1 19.4-15.6 35-35 35z"/>
		<path fill-rule="evenodd" class="s0" d="m83 75c-19.4 0-35-15.6-35-35 0-19.4 15.6-35 35-35 19.4 0 35 15.6 35 35 0 19.4-15.6 35-35 35z"/>
		<path fill-rule="evenodd" class="s0" d="m191.5 75c-19.4 0-35-15.6-35-35 0-19.4 15.6-35 35-35 19.4 0 35 15.6 35 35 0 19.4-15.6 35-35 35z"/>
		<path fill-rule="evenodd" class="s0" d="m300 75c-19.4 0-35-15.6-35-35 0-19.4 15.6-35 35-35 19.4 0 35 15.6 35 35 0 19.4-15.6 35-35 35z"/>
		<path fill-rule="evenodd" class="s0" d="m408.5 75c-19.4 0-35-15.6-35-35 0-19.4 15.6-35 35-35 19.4 0 35 15.6 35 35 0 19.4-15.6 35-35 35z"/>
		<path fill-rule="evenodd" class="s0" d="m-263.5-51h687.8v89.3h-687.8z"/>
	</g>
</svg>