<svg width="31" height="29" viewBox="0 0 31 29" fill="none" xmlns="http://www.w3.org/2000/svg">
<path d="M11.6 8.7V5.8H20.3V8.7H11.6ZM8.7 29C7.9025 29 7.21979 28.716 6.65188 28.1481C6.08396 27.5802 5.8 26.8975 5.8 26.1C5.8 25.3025 6.08396 24.6198 6.65188 24.0519C7.21979 23.484 7.9025 23.2 8.7 23.2C9.4975 23.2 10.1802 23.484 10.7481 24.0519C11.316 24.6198 11.6 25.3025 11.6 26.1C11.6 26.8975 11.316 27.5802 10.7481 28.1481C10.1802 28.716 9.4975 29 8.7 29ZM23.2 29C22.4025 29 21.7198 28.716 21.1519 28.1481C20.584 27.5802 20.3 26.8975 20.3 26.1C20.3 25.3025 20.584 24.6198 21.1519 24.0519C21.7198 23.484 22.4025 23.2 23.2 23.2C23.9975 23.2 24.6802 23.484 25.2481 24.0519C25.816 24.6198 26.1 25.3025 26.1 26.1C26.1 26.8975 25.816 27.5802 25.2481 28.1481C24.6802 28.716 23.9975 29 23.2 29ZM0 2.9V0H4.74875L10.9112 13.05H21.0613L26.7162 2.9H30.015L23.635 14.4275C23.3692 14.9108 23.0127 15.2854 22.5656 15.5513C22.1185 15.8171 21.6292 15.95 21.0975 15.95H10.295L8.7 18.85H26.1V21.75H8.7C7.6125 21.75 6.78479 21.2788 6.21687 20.3363C5.64896 19.3938 5.63083 18.4392 6.1625 17.4725L8.12 13.92L2.9 2.9H0Z" fill="white"/>
</svg>
