<svg width="107" height="154" viewBox="0 0 107 154" fill="none" xmlns="http://www.w3.org/2000/svg">
<path d="M50.9314 61.9527C-4.6416 55.7383 10.0205 112.735 24.2981 142.01C112.577 110.877 78.8364 75.6663 50.9314 61.9527ZM50.9314 61.9527C51.7793 44.364 59.3806 9.72392 83.0025 11.8734C85.22 26.0632 81.9103 55.9447 50.9314 61.9527ZM50.9314 61.9527C58.6913 50.0576 79.8179 28.1039 102.245 35.4504C101.66 49.9078 90.5792 75.4485 50.9314 61.9527ZM39.8361 74.4488C32.7667 77.3829 21.0171 89.5461 30.5731 114.726" stroke="white" stroke-width="3"/>
<path d="M58.0376 63.0489C67.9624 61.1455 81.5018 58.8988 87.7631 51.2053" stroke="white" stroke-opacity="0.8"/>
<path d="M71.8673 29.739C64.5884 36.749 54.4675 46.019 53.4178 55.8826" stroke="white" stroke-opacity="0.8"/>
</svg>
