<svg width="29" height="29" viewBox="0 0 29 29" fill="none" xmlns="http://www.w3.org/2000/svg">
<path d="M10.5732 12.0833C10.5732 9.91446 12.3314 8.15625 14.5002 8.15625C16.6691 8.15625 18.4273 9.91446 18.4273 12.0833C18.4273 14.2522 16.6691 16.0104 14.5002 16.0104C12.3314 16.0104 10.5732 14.2522 10.5732 12.0833Z" fill="#004D40"/>
<path fill-rule="evenodd" clip-rule="evenodd" d="M4.55994 10.7268C4.97517 5.68937 9.18475 1.8125 14.2393 1.8125H14.7612C19.8158 1.8125 24.0254 5.68937 24.4406 10.7268C24.6642 13.4391 23.8264 16.1322 22.1037 18.239L16.3121 25.322C15.3757 26.4672 13.6249 26.4672 12.6885 25.322L6.89684 18.239C5.17417 16.1322 4.33638 13.4391 4.55994 10.7268ZM14.5002 6.34375C11.3304 6.34375 8.76066 8.91345 8.76066 12.0833C8.76066 15.2532 11.3304 17.8229 14.5002 17.8229C17.6701 17.8229 20.2398 15.2532 20.2398 12.0833C20.2398 8.91345 17.6701 6.34375 14.5002 6.34375Z" fill="#004D40"/>
</svg>
